<?xml version="1.0" encoding="utf-8"?>
<!-- Generator: Adobe Illustrator 26.3.1, SVG Export Plug-In . SVG Version: 6.00 Build 0)  -->
<svg version="1.1" id="Layer_1" xmlns="http://www.w3.org/2000/svg" xmlns:xlink="http://www.w3.org/1999/xlink" x="0px" y="0px"
	 viewBox="0 0 626 272" style="enable-background:new 0 0 626 272;" xml:space="preserve">
<style type="text/css">
	.st0{fill:#00080F;}
	.st1{fill:url(#SVGID_1_);}
</style>
<g id="RGB_qualtrics_XM_2_">
	<g>
		<g>
			<g>
				<path class="st0" d="M230.9,167.4c-3.1,0-3.7-2.3-3.7-6.2v-39.4c0-13.4-7.6-21.4-20.2-21.4c-15.1,0-22,11.7-22.1,23.2l0,0.5
					h10.1l0-0.5c-0.1-4.1,1.4-8,3.9-10.5c2.1-2.1,4.7-3.2,7.7-3.2c6,0,9.7,4.7,9.7,12.7v3.7l-12.2,5.8
					c-13.8,6.4-22.8,11.7-22.8,25.3c0,11.9,7.5,20,18.7,20c6.3,0,12.4-3.1,17.1-8.8c1.6,5.6,5.8,8.8,11.6,8.8c2,0,4.2-0.4,6.3-1.3
					l0.3-0.1v-9.7l-0.7,0.4C233.4,167,232.2,167.5,230.9,167.4z M216,136V159c-2.7,4.4-8,8.9-13.8,8.9c-6.2,0-10-4-10-10.5
					c0-9.1,7.9-13.9,14.8-17.1L216,136z"/>
				<path class="st0" d="M287.5,78.5h-11.1l-0.4,23.3h-9.7v10.1h10.1v48.4c0,10.9,5.1,16.8,14.3,16.8c3.6,0,7.2-1,10.9-3.1l0.2-0.1
					v-10l-0.8,0.6c-2.4,2-5.1,3-7.6,3c-4.9,0-5.9-4.1-5.9-7.5v-48.1h15.9v-10.1h-15.9V78.5z"/>
				<path class="st0" d="M158.3,158.2c-4.2,6.1-9,9.4-13.6,9.4c-6,0-8.1-5.9-8.1-11.4v-54.5h-11.1v54.8c0,12.8,5.8,20.1,16,20.1
					c8.3,0,13.8-4.5,17.1-8.8l0.2,7.4h10.7v-73.6h-11.1V158.2z"/>
				<path class="st0" d="M101.4,108.5c-2.8-5.2-7.9-8.1-14.3-8.1c-6.2,0-11.9,3.1-16,8.6c-5.1,6.8-7.6,16.8-7.6,29.7
					c0,28.3,11.4,38.3,22.1,38.3c6,0,11.3-2.5,14.6-6.9v41.2h11.1V101.8h-9.5L101.4,108.5z M100.1,118.8v40.4
					c-3.1,5.5-6.8,8.1-11.7,8.1c-9.1,0-13.7-9.6-13.7-28.6c0-18.2,5.2-28.7,14.2-28.7C93.9,110.1,98.3,113.5,100.1,118.8z"/>
				<rect x="244.1" y="67.4" class="st0" width="11.1" height="108.5"/>
				<rect x="355.8" y="101.8" class="st0" width="11.1" height="73.6"/>
				<rect x="355.8" y="78.5" class="st0" width="11.1" height="12.7"/>
				<path class="st0" d="M325.2,110.5l-0.6-8.7H314v74.1h11.1v-53.3c0,0,11.5-11.5,17.7-11.5l2.4,0.2v-11.1h-2.8
					C334.6,100.5,330.3,103,325.2,110.5z"/>
				<path class="st0" d="M456.7,131.9l-0.3,0.4l0,0l0,0l0,0L456.7,131.9L456.7,131.9c-7-3.6-11.9-6.6-11.9-12.9c0-5.4,3.8-9,9.5-9
					c3,0,5.6,1.1,7.4,3.1c2.2,2.4,3.2,6.3,2.8,10.4l-0.1,0.5h10.2l0-0.4c0.3-6.9-1.7-13.1-5.7-17.2c-3.7-3.8-8.7-5.9-14.7-5.9
					c-11.9,0-20.2,7.9-20.2,19.2c0,12.3,9.9,17.6,17.1,21.4c7.2,3.9,13.9,7.6,13.9,15.2c0,6.5-4.7,11.2-11.2,11.2
					c-7.1,0-12.1-5.9-12.3-14.4l0-0.5h-10.3l0,0.5c0.3,14.9,9,24.2,22.6,24.2c13,0,21.8-8.6,21.8-21.5
					C475.8,142,465.7,136.6,456.7,131.9z"/>
				<path class="st0" d="M413.7,152.6c-0.2,5.2-1.6,9.6-4.1,12.1c-1.7,1.8-3.9,2.7-6.5,2.7c-8.4,0-12.9-9.8-12.9-28.4
					c0-18.5,4.6-28.7,13-28.7c2.4,0,4.5,0.8,6.1,2.5c2.3,2.3,3.6,6.4,3.9,11.2h10.4c-0.1-7.7-2.2-13.9-6.1-17.9
					c-3.4-3.6-8.1-5.4-13.8-5.4c-15.7,0-24.4,13.6-24.4,38.2c0,24.6,8.4,38.2,23.6,38.2c12.3,0,20-9.1,20.9-24.4H413.7z"/>
			</g>
			<path class="st0" d="M491.4,169.8c0.2-0.4,0.3-0.9,0.3-1.4c0-0.8-0.2-1.4-0.7-1.8c-0.5-0.4-1.2-0.7-2.1-0.7h-4v7.9h2.1v-2.6h1.6
				l1.4,2.6h1.8l-1.7-3.1C490.8,170.5,491.1,170.2,491.4,169.8z M489.7,169.3c-0.3,0.1-0.6,0.2-1.1,0.2h-1.5v-2.1h1.5
				c0.5,0,0.9,0.1,1.1,0.3c0.3,0.2,0.4,0.5,0.4,0.9C490.1,168.9,489.9,169.2,489.7,169.3z"/>
			<path class="st0" d="M494.7,167c-0.4-0.9-0.9-1.6-1.5-2.2c-0.6-0.6-1.4-1.1-2.2-1.4c-0.9-0.3-1.8-0.5-2.8-0.5
				c-1,0-1.9,0.2-2.8,0.5c-0.9,0.3-1.6,0.8-2.2,1.4c-0.6,0.6-1.1,1.3-1.5,2.2c-0.4,0.9-0.5,1.8-0.5,2.9c0,1,0.2,2,0.5,2.9
				c0.4,0.9,0.9,1.6,1.5,2.2s1.4,1.1,2.2,1.4c0.9,0.3,1.8,0.5,2.8,0.5c1,0,1.9-0.2,2.8-0.5c0.9-0.3,1.6-0.8,2.2-1.4
				c0.6-0.6,1.1-1.4,1.5-2.2c0.4-0.9,0.5-1.8,0.5-2.9C495.3,168.8,495.1,167.8,494.7,167z M493.4,172.1c-0.3,0.7-0.7,1.3-1.2,1.8
				c-0.5,0.5-1.1,0.9-1.8,1.2c-0.7,0.3-1.4,0.4-2.2,0.4c-0.8,0-1.5-0.1-2.2-0.4c-0.7-0.3-1.3-0.7-1.8-1.2c-0.5-0.5-0.9-1.1-1.2-1.8
				c-0.3-0.7-0.4-1.5-0.4-2.3c0-0.8,0.1-1.6,0.4-2.3c0.3-0.7,0.7-1.3,1.2-1.8c0.5-0.5,1.1-0.9,1.8-1.2c0.7-0.3,1.4-0.4,2.2-0.4
				c0.8,0,1.5,0.1,2.2,0.4c0.7,0.3,1.3,0.7,1.8,1.2c0.5,0.5,0.9,1.1,1.2,1.8c0.3,0.7,0.4,1.5,0.4,2.3
				C493.8,170.7,493.7,171.4,493.4,172.1z"/>
		</g>
		<linearGradient id="SVGID_1_" gradientUnits="userSpaceOnUse" x1="495.9369" y1="78.4084" x2="565.4045" y2="128.6456">
			<stop  offset="0" style="stop-color:#21DBAA"/>
			<stop  offset="7.161303e-02" style="stop-color:#18D0BD"/>
			<stop  offset="0.2266" style="stop-color:#07BCE1"/>
			<stop  offset="0.3091" style="stop-color:#00B4EF"/>
			<stop  offset="0.3872" style="stop-color:#01A8EC"/>
			<stop  offset="0.5287" style="stop-color:#0487E4"/>
			<stop  offset="0.6459" style="stop-color:#0768DD"/>
			<stop  offset="1" style="stop-color:#5F1AE5"/>
		</linearGradient>
		<path class="st1" d="M556,78l-9.6,33.9h-0.1L536,78h-12h-1.1h-9.3l-7.8,13.8L497.5,78H486l13.4,21.7L484.7,124h10.9l9.4-16l9.7,16
			h8.3h2.9h6.2V92.3h0.1c0.2,1.3,0.5,2.5,0.7,3.4c0.2,0.9,0.4,1.8,0.6,2.6c0.2,0.8,0.4,1.6,0.6,2.3c0.2,0.7,0.5,1.5,0.7,2.4l6.8,21
			h9.2l6.7-21c0.5-1.7,1-3.3,1.4-4.9c0.4-1.6,0.8-3.3,1.1-5.3h0.1V124h9.5V78H556z M510.6,99.7l12-19.8v39.3L510.6,99.7z"/>
	</g>
</g>
</svg>
