<svg id="Layer_1" data-name="Layer 1" xmlns="http://www.w3.org/2000/svg" viewBox="0 0 336.81 72.3"><defs><style>.cls-1{fill:#026cb6;}.cls-2{fill:#6a737b;}</style></defs><title>Walker_logo_blue</title><path class="cls-1" d="M74.23,26.72,55.59,55.65l-9.73-6.26L67.49,15.81a36.13,36.13,0,1,0,6.74,10.91ZM9.27,49.1l16-24.94,9.39,6.48L19,55.36Zm28,6.32-9.73-6.27,16-24.93,9.38,6.48Z" transform="translate(-4.44 -3.81)"/><g id="Walker"><path class="cls-2" d="M112.63,50.09l13.39-35,13.39,35,13.27-34h6.42l-19.69,49.3L126,30.66,112.63,65.43,93,16.13h6.41Z" transform="translate(-4.44 -3.81)"/><path class="cls-2" d="M164.51,51.66,159.1,63.54h-6.35l22.63-49.42L198,63.54h-6.35l-5.41-11.88Zm10.87-24.59L167,46.25h16.85Z" transform="translate(-4.44 -3.81)"/><path class="cls-2" d="M211.66,58.14h14.4v5.4H205.75V16.13h5.91Z" transform="translate(-4.44 -3.81)"/><path class="cls-2" d="M259.76,16.13h7.74L246.18,37.45l21.7,26.09h-8l-20.24-25v25h-5.91V16.13h5.91V36.69Z" transform="translate(-4.44 -3.81)"/><path class="cls-2" d="M275.23,16.13H300.7v5.41H281.14V34.81h19v5.4h-19V58.14H300.7v5.4H275.23Z" transform="translate(-4.44 -3.81)"/><path class="cls-2" d="M341.25,63.54h-7.17L320.13,43.48l-2.44-3.7V63.54h-5.91V16.13h7.16c4.22,0,8.74.06,12.51,2.2a13.11,13.11,0,0,1,6.23,11.32c0,6.79-4.53,12.45-11.38,13.27Zm-23.57-25h1.88c6,0,12.58-1.13,12.58-8.68s-7-8.49-12.89-8.49h-1.57Z" transform="translate(-4.44 -3.81)"/></g></svg>